<svg xmlns="http://www.w3.org/2000/svg" width="103.14" height="38.35" viewBox="0 0 103.14 38.35">
  <g id="GIM_-_Official_Logo_-_english" data-name="GIM - Official Logo - english" transform="translate(-0.83 -0.14)">
    <g id="Group_591" data-name="Group 591">
      <g id="Group_590" data-name="Group 590">
        <path id="Path_745" data-name="Path 745" d="M4.14,30.78a.273.273,0,0,1,.08.19v1.26a.281.281,0,0,1-.14.24,2.118,2.118,0,0,1-.57.26,2.3,2.3,0,0,1-.64.09,2.031,2.031,0,0,1-1.03-.27,2.014,2.014,0,0,1,0-3.5,2.031,2.031,0,0,1,1.03-.27,2.352,2.352,0,0,1,.54.06,1.5,1.5,0,0,1,.47.19.24.24,0,0,1,.1.1.266.266,0,0,1,.03.12.273.273,0,0,1-.08.19.25.25,0,0,1-.18.08.26.26,0,0,1-.15-.04,1.776,1.776,0,0,0-.74-.17,1.349,1.349,0,0,0-.74.2,1.446,1.446,0,0,0-.53.54,1.575,1.575,0,0,0,0,1.5,1.452,1.452,0,0,0,1.27.74,1.9,1.9,0,0,0,.4-.05,1.518,1.518,0,0,0,.36-.12v-.89H2.94a.269.269,0,0,1-.19-.46.273.273,0,0,1,.19-.08h.99A.34.34,0,0,1,4.14,30.78Z" fill="#003250"/>
        <path id="Path_746" data-name="Path 746" d="M8.41,31.84a1.84,1.84,0,0,1-.68.73,1.8,1.8,0,0,1-.98.27,1.828,1.828,0,0,1-.98-.27,1.913,1.913,0,0,1-.68-.73,2.2,2.2,0,0,1-.24-1.03,2.094,2.094,0,0,1,.25-1.03,1.84,1.84,0,0,1,.68-.73,1.8,1.8,0,0,1,.98-.27,1.828,1.828,0,0,1,.98.27,1.913,1.913,0,0,1,.68.73,2.088,2.088,0,0,1,.24,1.03A2.337,2.337,0,0,1,8.41,31.84Zm-.5-1.8a1.276,1.276,0,0,0-.47-.53,1.283,1.283,0,0,0-1.36-.01,1.276,1.276,0,0,0-.47.53,1.806,1.806,0,0,0,0,1.53,1.218,1.218,0,0,0,.47.53,1.32,1.32,0,0,0,.68.2,1.2,1.2,0,0,0,.68-.19,1.34,1.34,0,0,0,.47-.53,1.731,1.731,0,0,0,.17-.76A1.775,1.775,0,0,0,7.91,30.04Z" fill="#003250"/>
        <path id="Path_747" data-name="Path 747" d="M12.8,31.84a1.84,1.84,0,0,1-.68.73,1.8,1.8,0,0,1-.98.27,1.828,1.828,0,0,1-.98-.27,1.913,1.913,0,0,1-.68-.73,2.2,2.2,0,0,1-.24-1.03,2.094,2.094,0,0,1,.25-1.03,1.84,1.84,0,0,1,.68-.73,1.716,1.716,0,0,1,.98-.26,1.828,1.828,0,0,1,.98.27,1.914,1.914,0,0,1,.68.73,2.088,2.088,0,0,1,.24,1.03A2.056,2.056,0,0,1,12.8,31.84Zm-.5-1.79a1.276,1.276,0,0,0-.47-.53,1.312,1.312,0,0,0-1.36,0,1.276,1.276,0,0,0-.47.53,1.806,1.806,0,0,0,0,1.53,1.276,1.276,0,0,0,.47.53,1.32,1.32,0,0,0,.68.2,1.2,1.2,0,0,0,.68-.19,1.34,1.34,0,0,0,.47-.53,1.731,1.731,0,0,0,.17-.76A1.756,1.756,0,0,0,12.3,30.05Z" fill="#003250"/>
        <path id="Path_748" data-name="Path 748" d="M16.43,29.12a1.669,1.669,0,0,1,.57.71,2.7,2.7,0,0,1,0,1.99,1.669,1.669,0,0,1-.57.71,1.575,1.575,0,0,1-.91.26H14.14a.273.273,0,0,1-.27-.27V29.13a.273.273,0,0,1,.27-.27h1.38A1.44,1.44,0,0,1,16.43,29.12Zm-.11,2.74a2.01,2.01,0,0,0,0-2.08.989.989,0,0,0-.86-.41H14.42v2.9h1.04A.977.977,0,0,0,16.32,31.86Z" fill="#003250"/>
        <path id="Path_749" data-name="Path 749" d="M18.47,32.73a1.916,1.916,0,0,1-.6-.37.294.294,0,0,1-.12-.23.25.25,0,0,1,.08-.18.273.273,0,0,1,.19-.08.227.227,0,0,1,.16.06,1.621,1.621,0,0,0,.46.31,1.333,1.333,0,0,0,.54.1,1.033,1.033,0,0,0,.6-.16.49.49,0,0,0,.24-.41.5.5,0,0,0-.24-.45,2.07,2.07,0,0,0-.73-.27,1.934,1.934,0,0,1-.89-.39.932.932,0,0,1-.31-.75.974.974,0,0,1,.18-.58,1.132,1.132,0,0,1,.48-.38,1.747,1.747,0,0,1,.7-.13,2.076,2.076,0,0,1,.66.11,1.51,1.51,0,0,1,.5.3.3.3,0,0,1,.13.24.274.274,0,0,1-.26.26.154.154,0,0,1-.13-.05,1.192,1.192,0,0,0-.4-.25,1.3,1.3,0,0,0-.49-.1,1.066,1.066,0,0,0-.6.15.468.468,0,0,0-.22.41.473.473,0,0,0,.22.42,2.118,2.118,0,0,0,.66.25,3.215,3.215,0,0,1,.72.23,1.094,1.094,0,0,1,.43.36,1.066,1.066,0,0,1,.15.6.974.974,0,0,1-.18.58,1.153,1.153,0,0,1-.5.39,1.736,1.736,0,0,1-.69.14A2.329,2.329,0,0,1,18.47,32.73Z" fill="#003250"/>
        <path id="Path_750" data-name="Path 750" d="M23.53,32.72a.3.3,0,0,1-.2.08.273.273,0,0,1-.28-.28V29.13a.273.273,0,0,1,.08-.19.279.279,0,0,1,.2-.08.273.273,0,0,1,.27.27v3.39A.191.191,0,0,1,23.53,32.72Z" fill="#003250"/>
        <path id="Path_751" data-name="Path 751" d="M27.78,28.94a.241.241,0,0,1,.07.18v3.41a.3.3,0,0,1-.08.2.273.273,0,0,1-.19.08.5.5,0,0,1-.12-.02.146.146,0,0,1-.09-.06l-2.2-2.88v2.71a.24.24,0,0,1-.25.25.206.206,0,0,1-.17-.07.287.287,0,0,1-.07-.18V29.14a.256.256,0,0,1,.08-.19.249.249,0,0,1,.19-.07.277.277,0,0,1,.13.03.218.218,0,0,1,.09.07l2.2,2.89V29.14a.24.24,0,0,1,.25-.25A.142.142,0,0,1,27.78,28.94Z" fill="#003250"/>
        <path id="Path_752" data-name="Path 752" d="M34.17,28.95a.256.256,0,0,1,.08.19v3.4a.256.256,0,0,1-.08.19.29.29,0,0,1-.4,0,.273.273,0,0,1-.08-.19v-2.6L32.6,31.59a.392.392,0,0,1-.1.08.255.255,0,0,1-.24,0,.391.391,0,0,1-.1-.08l-1.09-1.7v2.65a.242.242,0,0,1-.26.26.22.22,0,0,1-.18-.08.264.264,0,0,1-.07-.19v-3.4a.293.293,0,0,1,.08-.19.279.279,0,0,1,.2-.08.2.2,0,0,1,.13.04.219.219,0,0,1,.1.09l1.33,2.02L33.76,29a.28.28,0,0,1,.23-.12A.241.241,0,0,1,34.17,28.95Z" fill="#003250"/>
        <path id="Path_753" data-name="Path 753" d="M38.62,31.88a1.84,1.84,0,0,1-.68.73,1.716,1.716,0,0,1-.98.26,1.828,1.828,0,0,1-.98-.27,1.913,1.913,0,0,1-.68-.73,2.2,2.2,0,0,1-.24-1.03,2.094,2.094,0,0,1,.25-1.03,1.84,1.84,0,0,1,.68-.73,1.8,1.8,0,0,1,.98-.27,1.828,1.828,0,0,1,.98.27,1.914,1.914,0,0,1,.68.73,2.2,2.2,0,0,1,.24,1.03A2.106,2.106,0,0,1,38.62,31.88Zm-.5-1.79a1.276,1.276,0,0,0-.47-.53,1.32,1.32,0,0,0-.68-.2,1.224,1.224,0,0,0-.68.19,1.276,1.276,0,0,0-.47.53,1.806,1.806,0,0,0,0,1.53,1.276,1.276,0,0,0,.47.53,1.224,1.224,0,0,0,.68.19,1.2,1.2,0,0,0,.68-.19,1.34,1.34,0,0,0,.47-.53,1.784,1.784,0,0,0,0-1.52Z" fill="#003250"/>
        <path id="Path_754" data-name="Path 754" d="M42.32,28.96a.256.256,0,0,1,.08.19.22.22,0,0,1-.08.18.264.264,0,0,1-.19.07h-1v3.15a.256.256,0,0,1-.08.19.286.286,0,0,1-.21.08.323.323,0,0,1-.21-.08.273.273,0,0,1-.08-.19V29.4h-1a.249.249,0,0,1-.19-.07.256.256,0,0,1-.08-.19.25.25,0,0,1,.08-.18.264.264,0,0,1,.19-.07h2.57A.258.258,0,0,1,42.32,28.96Z" fill="#003250"/>
        <path id="Path_755" data-name="Path 755" d="M43.62,32.75a.3.3,0,0,1-.2.08.273.273,0,0,1-.28-.28V29.16a.273.273,0,0,1,.08-.19.279.279,0,0,1,.2-.08.273.273,0,0,1,.27.27v3.39A.2.2,0,0,1,43.62,32.75Z" fill="#003250"/>
        <path id="Path_756" data-name="Path 756" d="M48.09,31.89a1.84,1.84,0,0,1-.68.73,1.8,1.8,0,0,1-.98.27,1.828,1.828,0,0,1-.98-.27,1.913,1.913,0,0,1-.68-.73,2.2,2.2,0,0,1-.24-1.03,2.094,2.094,0,0,1,.25-1.03,1.84,1.84,0,0,1,.68-.73,1.8,1.8,0,0,1,.98-.27,1.828,1.828,0,0,1,.98.27,1.914,1.914,0,0,1,.68.73,2.2,2.2,0,0,1,.24,1.03A2.179,2.179,0,0,1,48.09,31.89Zm-.5-1.79a1.276,1.276,0,0,0-.47-.53,1.283,1.283,0,0,0-1.36-.01,1.276,1.276,0,0,0-.47.53,1.806,1.806,0,0,0,0,1.53,1.218,1.218,0,0,0,.47.53,1.232,1.232,0,0,0,.68.2,1.2,1.2,0,0,0,.68-.19,1.34,1.34,0,0,0,.47-.53,1.7,1.7,0,0,0,.17-.76A1.893,1.893,0,0,0,47.59,30.1Z" fill="#003250"/>
        <path id="Path_757" data-name="Path 757" d="M52.27,28.97a.241.241,0,0,1,.07.18v3.41a.3.3,0,0,1-.08.2.273.273,0,0,1-.19.08.5.5,0,0,1-.12-.02.146.146,0,0,1-.09-.06l-2.2-2.88v2.71a.24.24,0,0,1-.25.25.206.206,0,0,1-.17-.07.287.287,0,0,1-.07-.18V29.17a.273.273,0,0,1,.27-.27.277.277,0,0,1,.13.03.218.218,0,0,1,.09.07l2.2,2.89V29.16a.24.24,0,0,1,.25-.25A.2.2,0,0,1,52.27,28.97Z" fill="#003250"/>
      </g>
    </g>
    <g id="Group_592" data-name="Group 592">
      <path id="Path_758" data-name="Path 758" d="M30.91,6.91a3.864,3.864,0,0,0-2.73-1.14h-.97V23.16h4.83V9.64A3.8,3.8,0,0,0,30.91,6.91Z" fill="#151515"/>
      <path id="Path_759" data-name="Path 759" d="M22.16,13.9a3.807,3.807,0,0,0-1.71-.4h-.97v5.8H17.76a4.848,4.848,0,0,1-4.83-4.83,4.84,4.84,0,0,1,4.83-4.83h2.68A3.823,3.823,0,0,0,23.17,8.5a3.864,3.864,0,0,0,1.14-2.73H16.58a8.7,8.7,0,0,0-.01,17.39H24.3v-5.8a3.823,3.823,0,0,0-1.14-2.73A3.682,3.682,0,0,0,22.16,13.9Z" fill="#151515"/>
      <path id="Path_760" data-name="Path 760" d="M51.43,5.77A4.807,4.807,0,0,0,48.1,7.11l-.16.16-.43.43h0a1.2,1.2,0,0,1-.12.11l-3.75,3.75L39.89,7.81a1.2,1.2,0,0,0-.12-.11h0l-.43-.43-.16-.16a4.807,4.807,0,0,0-3.33-1.34h-.91V23.16h4.83V13.5l3.86,4.83,3.86-4.83v9.66h4.83V5.77Z" fill="#151515"/>
    </g>
    <path id="Path_761" data-name="Path 761" d="M103.48,30.83a15.173,15.173,0,0,1,.49,3.83v3.83H73.29A15.343,15.343,0,0,1,57.95,23.15V15.48A15.343,15.343,0,0,1,73.29.14h30.67a15.339,15.339,0,0,1-4.49,10.85,15.322,15.322,0,0,1-10.85,4.49H73.29v7.67H88.63V19.32a15.261,15.261,0,0,1,10.13,3.83,8.933,8.933,0,0,1,.72.66A15.549,15.549,0,0,1,103.48,30.83Z" fill="#ffc800"/>
  </g>
</svg>
